{"title":"Liar.Liar.1997.720p.BRRip.XviD.AC3-PsychoLogic","uid":6555118,"size":2269978740,"categoryP":"video","categoryS":"hd___movies","magnet":"?xt=urn:btih:682ce3d468e5573cab523ecc75d391e04ee2bf8e&amp;dn=Liar.Liar.1997.720p.BRRip.XviD.AC3-PsychoLogic&amp;tr=udp%3A%2F%2Ftracker.openbittorrent.com%3A80&amp;tr=udp%3A%2F%2Fopen.demonii.com%3A1337&amp;tr=udp%3A%2F%2Ftracker.coppersurfer.tk%3A6969&amp;tr=udp%3A%2F%2Fexodus.desync.com%3A6969","seeders":1,"leechers":0,"uploader":"PsychoLogic","files":14,"time":1311262215,"description":"Release Information:\n\nLiar.Liar.1997.720p.BRRip.XviD.AC3-PsychoLogic\n\nSource                           : Liar.Liar.1997.Bluray.1080p.DTS.2Audio.x264-CHD\nSubtitles                        : Bulgarian, Danish, Dutch, English, Greek, Hungarian, Romanian, Spanish, Swedish, Vietnamese\nLanguage                         : English\nEncoded By                       : PsychoLogic\nSample Included                  : Yes\n\nMovie Information                : http://www.imdb.com/title/tt0119528/\nGenre                            : Comedy | Fantasy \nDirector                         : Tom Shadyac\nCast                             : Jim Carrey, Maura Tierney and Justin Cooper\nPlot                             : A fast track lawyer can't lie for 24 hours due to his son's birthday wish after the lawyer turns his son down for the last time. \n\nGeneral\nFormat                           : AVI\nFormat/Info                      : Audio Video Interleave\nFormat profile                   : OpenDML\nFile size                        : 2.09 GiB\nDuration                         : 1h 26mn\nOverall bit rate                 : 3 458 Kbps\nWriting application              : VirtualDubMod 1.5.10.2 (build 2540/release)\nWriting library                  : VirtualDubMod build 2540/release\n\nVideo\nID                               : 0\nFormat                           : MPEG-4 Visual\nFormat profile                   : Advanced Simple@L5\nFormat settings, BVOP            : 2\nFormat settings, QPel            : No\nFormat settings, GMC             : No warppoints\nFormat settings, Matrix          : Default (H.263)\nCodec ID                         : XVID\nCodec ID/Hint                    : XviD\nDuration                         : 1h 26mn\nBit rate                         : 2 997 Kbps\nWidth                            : 1 280 pixels\nHeight                           : 688 pixels\nDisplay aspect ratio             : 1.860\nFrame rate                       : 23.976 fps\nColor space                      : YUV\nChroma subsampling               : 4:2:0\nBit depth                        : 8 bits\nScan type                        : Progressive\nCompression mode                 : Lossy\nBits/(Pixel*Frame)               : 0.142\nStream size                      : 1.81 GiB (87%)\nWriting library                  : XviD 61\n\nAudio\nID                               : 1\nFormat                           : AC-3\nFormat/Info                      : Audio Coding 3\nMode extension                   : CM (complete main)\nCodec ID                         : 2000\nDuration                         : 1h 26mn\nBit rate mode                    : Constant\nBit rate                         : 448 Kbps\nChannel(s)                       : 6 channels\nChannel positions                : Front: L C R, Side: L R, LFE\nSampling rate                    : 48.0 KHz\nBit depth                        : 16 bits\nCompression mode                 : Lossy\nStream size                      : 277 MiB (13%)\nAlignment                        : Split accross interleaves\nInterleave, duration             : 42 ms (1.00 video frame)\nInterleave, preload duration     : 500 ms\n\n","torrent":{"xt":"urn:btih:682ce3d468e5573cab523ecc75d391e04ee2bf8e","amp;dn":"Liar.Liar.1997.720p.BRRip.XviD.AC3-PsychoLogic","amp;tr":["udp%3A%2F%2Ftracker.openbittorrent.com%3A80","udp%3A%2F%2Fopen.demonii.com%3A1337","udp%3A%2F%2Ftracker.coppersurfer.tk%3A6969","udp%3A%2F%2Fexodus.desync.com%3A6969"],"infoHash":"682ce3d468e5573cab523ecc75d391e04ee2bf8e","infoHashBuffer":{"type":"Buffer","data":[104,44,227,212,104,229,87,60,171,82,62,204,117,211,145,224,78,226,191,142]},"announce":[],"urlList":[]}}